# xmcd
#
# Track frame offsets: 
#        150
#        8380
#        15117
#        21382
#        28162
#        36065
#        45060
#        54397
#        62735
#        73012
#        79062
#        84580
#        94060
#        102272
#        110850
#        121397
#        131042
#        139312
#        145720
#        152095
#        160327
#        169832
#        177132
#        184847
#        194010
#        200732
#        209045
#
# Disc length: 2936 seconds
#
# Revision: 1
# Processed by: cddbd v1.5.1PL0 Copyright (c) Steve Scherf et al.
# Submitted via: ExactAudioCopy v0.95a4
#
DISCID=790b761b
DTITLE=Various Artist - Κόλαση -1995 CD 2
DYEAR=1995
DGENRE=Other
TTITLE0=Καίτη Γαρμπή/Μη με συγκρίνεις
TTITLE1=Χρήστος Κυριαζής/Δεν προσκύνησα
TTITLE2=’ννα Βίσση/Ένα σου λέω ένα
TTITLE3=Λευτέρης Πανταζής/Το ωραιότερο πλάσμα
TTITLE4=’νντζελα Δημητρίου/Κλείσε φώτα, κλείσε μάτια
TTITLE5=Σταμάτης Γονίδης/Η αιτία
TTITLE6=Πασχάλης Τερζής/Του Βοριά ο Γιός
TTITLE7=’ντζελα Δημητρίου/Φωτιά στα Σαββατόβραδα
TTITLE8=Λευτέρης Πανταζής/Είναι Αστείο
TTITLE9=Χρήστος Κυριαζής/Επιμένω
TTITLE10=Γιώργος Μαργαρίτης/Μα τι λέω
TTITLE11=’ντζελα Δημητρίου/Εσύ τι λες
TTITLE12=Σοφία Βόσσου/Αν είναι να κολάσω
TTITLE13=’ννα Βίσση/Λάμπω
TTITLE14=’ντζελα Δημητρίου/Ας με λένε τρελλή
TTITLE15=Λευτέρης Πανταζής/Κι άλλο κι άλλο
TTITLE16=’ντζελα Δημητρίου/Φταίει ο έρωτας
TTITLE17=Σταμάτης Γονίδης/Φταίει
TTITLE18=Νίκος Καρβέλας/Σε παρακαλώ
TTITLE19=Γιώργος Αλκαίος/Δεν πειράζει
TTITLE20=Πίτσα Παπαδοπούλου/Τσιγαρόχαρτο
TTITLE21=Χρήστος Δάντης/Κάποιος σ' αγαπάει
TTITLE22=Σταμάτης Γονίδης/Πίστεψέ με
TTITLE23=Νίκος Καρβέλας, and ’ννα Βίσση/Εμείς
TTITLE24=Σοφία Βόσσου and Σταμάτης Γονίδης/Δε μ' αγαπάς
TTITLE25=Στέφανος Κορκολής/Παράξενη αγάπη
TTITLE26=Ανώνης Βαρδής and Χριστίνα Μαραγκόζη/Θα εκραγώ
EXTD=
EXTT0=
EXTT1=
EXTT2=
EXTT3=
EXTT4=
EXTT5=
EXTT6=
EXTT7=
EXTT8=
EXTT9=
EXTT10=
EXTT11=
EXTT12=
EXTT13=
EXTT14=
EXTT15=
EXTT16=
EXTT17=
EXTT18=
EXTT19=
EXTT20=
EXTT21=
EXTT22=
EXTT23=
EXTT24=
EXTT25=
EXTT26=
PLAYORDER=
